<svg width="80" height="80" viewBox="0 0 80 80" fill="none" xmlns="http://www.w3.org/2000/svg">
<rect x="0.5" y="0.5" width="79" height="79" fill="#C4C4C4" stroke="black"/>
<path d="M64 68H40C38.9395 67.9989 37.9227 67.5772 37.1727 66.8273C36.4228 66.0773 36.0011 65.0605 36 64V40C36.0011 38.9395 36.4228 37.9227 37.1727 37.1727C37.9227 36.4228 38.9395 36.0011 40 36H64C65.0605 36.0011 66.0773 36.4228 66.8273 37.1727C67.5772 37.9227 67.9989 38.9395 68 40V64C67.9989 65.0605 67.5772 66.0773 66.8273 66.8273C66.0773 67.5772 65.0605 67.9989 64 68ZM40 40V64H64.002L64 40H40ZM38 12L35.18 14.82L40.34 20H30C26.2883 20.0042 22.7298 21.4806 20.1052 24.1052C17.4806 26.7298 16.0042 30.2883 16 34V44H20V34C20.0032 31.3488 21.0578 28.8071 22.9324 26.9324C24.8071 25.0578 27.3488 24.0032 30 24H40.34L35.18 29.18L38 32L48 22L38 12Z" fill="black"/>
</svg>
