<svg width="80" height="80" viewBox="0 0 80 80" fill="none" xmlns="http://www.w3.org/2000/svg">
<rect x="0.5" y="0.5" width="79" height="79" fill="#C4C4C4" stroke="black"/>
<path d="M69.016 61.798C67.612 60.627 67.115 60.339 66.825 60.554C66.7512 60.1671 66.5536 59.8148 66.262 59.55C65.831 59.16 65.244 58.988 64.631 59.007C64.6256 58.7581 64.5697 58.5129 64.4665 58.2863C64.3634 58.0597 64.2152 57.8565 64.031 57.689C63.599 57.298 63.011 57.126 62.398 57.145C62.393 56.8961 62.3374 56.6509 62.2344 56.4242C62.1314 56.1976 61.9832 55.9944 61.799 55.827C61.368 55.436 60.78 55.264 60.168 55.282C60.163 55.033 60.1073 54.7877 60.0041 54.5611C59.9009 54.3344 59.7525 54.1312 59.568 53.964C59.067 53.509 58.356 53.349 57.636 53.448C59.299 50.75 57.174 47.696 55.512 46.307C54.469 45.437 54.967 46.59 53.123 49.41C50.6542 47.3419 48.2394 45.2102 45.881 43.017C50.127 40.081 54.804 36.623 59.507 32.696C71.236 22.903 69.959 12 69.959 12C69.959 12 68.605 13.384 66.277 15.002C62.983 17.292 57.735 20.062 51.6 20.062L51.327 20.06C51.327 20.06 51.012 25.532 39.998 37.189C28.986 25.531 28.673 20.06 28.673 20.06L28.4 20.062C22.265 20.062 17.017 17.292 13.723 15.002C11.395 13.384 10.041 12 10.041 12C10.041 12 8.764 22.903 20.491 32.695C25.185 36.615 29.867 40.085 34.107 43.017C31.7519 45.2101 29.3401 47.3415 26.874 49.409C25.031 46.59 25.529 45.436 24.486 46.306C22.824 47.695 20.699 50.748 22.362 53.447C21.643 53.347 20.931 53.508 20.43 53.963C20.2457 54.1304 20.0975 54.3336 19.9943 54.5602C19.8912 54.7868 19.8353 55.0321 19.83 55.281C19.217 55.262 18.63 55.435 18.199 55.826C17.808 56.18 17.619 56.648 17.6 57.144C16.987 57.124 16.399 57.297 15.968 57.688C15.577 58.042 15.388 58.51 15.369 59.006C14.756 58.987 14.168 59.159 13.738 59.549C13.447 59.8141 13.2498 60.1664 13.176 60.553C12.885 60.338 12.388 60.626 10.984 61.797C8.546 63.835 11.22 62.949 12.734 64.744C14.965 67.39 20.792 69.911 25.571 65.919C29.503 62.638 31.239 57.342 29.474 53.251C30.822 52.517 34.75 50.32 40 46.946C45.256 50.325 49.178 52.515 50.525 53.252C48.76 57.343 50.496 62.639 54.428 65.92C59.207 69.912 65.033 67.392 67.265 64.745C68.779 62.95 71.454 63.836 69.016 61.798V61.798ZM15.173 63.487C16.063 63.784 17.022 63.671 17.653 63.098C18.042 62.745 18.231 62.277 18.25 61.781C18.863 61.801 19.45 61.628 19.882 61.238C20.272 60.884 20.461 60.416 20.48 59.919C21.093 59.939 21.681 59.765 22.114 59.375C22.503 59.022 22.692 58.553 22.711 58.057C23.324 58.077 23.912 57.905 24.344 57.514C24.73 57.162 24.92 56.698 24.942 56.205C28.57 61.268 20.487 68.032 15.173 63.487V63.487ZM52.529 21.542C56.959 21.354 60.898 19.861 63.998 18.173C62.801 21.915 60.267 26.468 55.043 30.827C50.87 34.312 46.717 37.423 42.873 40.126C42.2511 39.5126 41.6357 38.8925 41.027 38.266C49.346 29.45 51.813 23.944 52.529 21.542V21.542ZM27.471 21.542C28.422 24.729 32.415 33.363 49.145 47.98C43.4 44.512 34.193 38.54 24.957 30.828C19.734 26.469 17.2 21.916 16.002 18.174C19.102 19.861 23.042 21.354 27.471 21.542V21.542ZM30.855 47.979C32.386 46.6417 33.8929 45.2772 35.375 43.886C35.7 44.108 36.021 44.324 36.341 44.539C34.5307 45.7147 32.7018 46.8615 30.855 47.979V47.979ZM55.058 56.205C55.08 56.697 55.27 57.162 55.656 57.514C56.089 57.905 56.677 58.077 57.29 58.057C57.309 58.553 57.498 59.023 57.887 59.375C58.32 59.765 58.908 59.938 59.521 59.919C59.541 60.416 59.729 60.885 60.119 61.238C60.551 61.628 61.139 61.801 61.752 61.781C61.771 62.277 61.959 62.746 62.349 63.098C62.981 63.67 63.94 63.784 64.829 63.487C59.513 68.032 51.43 61.268 55.058 56.205" fill="black"/>
</svg>
